REM DIRINDEX 1\2,1\3,1\4
REM DIRNAME cjc105,folder01,folder02,folder03
TITLE ""
FILE "DISC1Track13.mp3" MP3
  TRACK 01 AUDIO
    TITLE "0:"
    INDEX 01 00:00:00
  TRACK 02 AUDIO
    TITLE "4:cjc105_0942"
    INDEX 01 00:00:15
  TRACK 03 AUDIO
    TITLE "0:"
    INDEX 01 00:06:08
  TRACK 04 AUDIO
    TITLE "4:cjc105_0943"
    INDEX 01 00:06:65
  TRACK 05 AUDIO
    TITLE "0:"
    INDEX 01 00:10:53
  TRACK 06 AUDIO
    TITLE "4:cjc105_0944"
    INDEX 01 00:11:29
  TRACK 07 AUDIO
    TITLE "0:"
    INDEX 01 00:13:71
  TRACK 08 AUDIO
    TITLE "2:cjc105_0945"
    INDEX 01 00:14:45
  TRACK 09 AUDIO
    TITLE "3:cjc105_0946"
    INDEX 01 00:16:12
  TRACK 10 AUDIO
    TITLE "0:"
    INDEX 01 00:17:55
  TRACK 11 AUDIO
    TITLE "2:cjc105_0947"
    INDEX 01 00:17:69
  TRACK 12 AUDIO
    TITLE "3:cjc105_0948"
    INDEX 01 00:19:42
  TRACK 13 AUDIO
    TITLE "0:"
    INDEX 01 00:20:61
  TRACK 14 AUDIO
    TITLE "2:cjc105_0949"
    INDEX 01 00:21:00
  TRACK 15 AUDIO
    TITLE "3:cjc105_0950"
    INDEX 01 00:22:42
  TRACK 16 AUDIO
    TITLE "0:"
    INDEX 01 00:23:63
  TRACK 17 AUDIO
    TITLE "2:cjc105_0951"
    INDEX 01 00:24:04
  TRACK 18 AUDIO
    TITLE "3:cjc105_0952"
    INDEX 01 00:25:45
  TRACK 19 AUDIO
    TITLE "0:"
    INDEX 01 00:26:50
  TRACK 20 AUDIO
    TITLE "2:cjc105_0953"
    INDEX 01 00:26:66
  TRACK 21 AUDIO
    TITLE "3:cjc105_0954"
    INDEX 01 00:28:06
  TRACK 22 AUDIO
    TITLE "0:"
    INDEX 01 00:29:48
  TRACK 23 AUDIO
    TITLE "2:cjc105_0955"
    INDEX 01 00:29:60
  TRACK 24 AUDIO
    TITLE "3:cjc105_0956"
    INDEX 01 00:31:31
  TRACK 25 AUDIO
    TITLE "0:"
    INDEX 01 00:33:03
  TRACK 26 AUDIO
    TITLE "2:cjc105_0957"
    INDEX 01 00:33:15
  TRACK 27 AUDIO
    TITLE "3:cjc105_0958"
    INDEX 01 00:34:69
  TRACK 28 AUDIO
    TITLE "0:"
    INDEX 01 00:36:13
  TRACK 29 AUDIO
    TITLE "2:cjc105_0959"
    INDEX 01 00:36:29
  TRACK 30 AUDIO
    TITLE "3:cjc105_0960"
    INDEX 01 00:37:61
  TRACK 31 AUDIO
    TITLE "0:"
    INDEX 01 00:39:29
  TRACK 32 AUDIO
    TITLE "2:cjc105_0961"
    INDEX 01 00:39:41
  TRACK 33 AUDIO
    TITLE "3:cjc105_0962"
    INDEX 01 00:40:60
  TRACK 34 AUDIO
    TITLE "0:"
    INDEX 01 00:42:10
  TRACK 35 AUDIO
    TITLE "2:cjc105_0963"
    INDEX 01 00:42:27
  TRACK 36 AUDIO
    TITLE "3:cjc105_0964"
    INDEX 01 00:43:56
  TRACK 37 AUDIO
    TITLE "0:"
    INDEX 01 00:45:20
  TRACK 38 AUDIO
    TITLE "2:cjc105_0965"
    INDEX 01 00:45:37
  TRACK 39 AUDIO
    TITLE "3:cjc105_0966"
    INDEX 01 00:47:23
  TRACK 40 AUDIO
    TITLE "0:"
    INDEX 01 00:48:69
  TRACK 41 AUDIO
    TITLE "2:cjc105_0967"
    INDEX 01 00:49:12
  TRACK 42 AUDIO
    TITLE "3:cjc105_0968"
    INDEX 01 00:50:41
  TRACK 43 AUDIO
    TITLE "0:"
    INDEX 01 00:52:00
  TRACK 44 AUDIO
    TITLE "2:cjc105_0969"
    INDEX 01 00:52:16
  TRACK 45 AUDIO
    TITLE "3:cjc105_0970"
    INDEX 01 00:54:01
  TRACK 46 AUDIO
    TITLE "0:"
    INDEX 01 00:56:06
  TRACK 47 AUDIO
    TITLE "2:cjc105_0971"
    INDEX 01 00:56:20
  TRACK 48 AUDIO
    TITLE "3:cjc105_0972"
    INDEX 01 00:57:66
  TRACK 49 AUDIO
    TITLE "0:"
    INDEX 01 00:59:30
  TRACK 50 AUDIO
    TITLE "2:cjc105_0973"
    INDEX 01 00:59:45
  TRACK 51 AUDIO
    TITLE "3:cjc105_0974"
    INDEX 01 01:01:21
  TRACK 52 AUDIO
    TITLE "0:"
    INDEX 01 01:02:59
  TRACK 53 AUDIO
    TITLE "2:cjc105_0975"
    INDEX 01 01:03:00
  TRACK 54 AUDIO
    TITLE "3:cjc105_0976"
    INDEX 01 01:04:68
  TRACK 55 AUDIO
    TITLE "0:"
    INDEX 01 01:06:24
  TRACK 56 AUDIO
    TITLE "2:cjc105_0977"
    INDEX 01 01:06:38
  TRACK 57 AUDIO
    TITLE "3:cjc105_0978"
    INDEX 01 01:07:70
  TRACK 58 AUDIO
    TITLE "0:"
    INDEX 01 01:09:56
  TRACK 59 AUDIO
    TITLE "2:cjc105_0979"
    INDEX 01 01:09:71
  TRACK 60 AUDIO
    TITLE "3:cjc105_0980"
    INDEX 01 01:11:23
  TRACK 61 AUDIO
    TITLE "0:"
    INDEX 01 01:13:08
  TRACK 62 AUDIO
    TITLE "2:cjc105_0981"
    INDEX 01 01:13:24
  TRACK 63 AUDIO
    TITLE "3:cjc105_0982"
    INDEX 01 01:14:61
  TRACK 64 AUDIO
    TITLE "0:"
    INDEX 01 01:17:57
  TRACK 65 AUDIO
    TITLE "2:cjc105_0983"
    INDEX 01 01:18:04
  TRACK 66 AUDIO
    TITLE "3:cjc105_0984"
    INDEX 01 01:19:48
  TRACK 67 AUDIO
    TITLE "0:"
    INDEX 01 01:22:09
  TRACK 68 AUDIO
    TITLE "2:cjc105_0985"
    INDEX 01 01:22:25
  TRACK 69 AUDIO
    TITLE "3:cjc105_0986"
    INDEX 01 01:23:22
  TRACK 70 AUDIO
    TITLE "0:"
    INDEX 01 01:24:61
  TRACK 71 AUDIO
    TITLE "2:cjc105_0987"
    INDEX 01 01:24:73
  TRACK 72 AUDIO
    TITLE "3:cjc105_0988"
    INDEX 01 01:26:42
  TRACK 73 AUDIO
    TITLE "0:"
    INDEX 01 01:27:55
  TRACK 74 AUDIO
    TITLE "2:cjc105_0989"
    INDEX 01 01:27:67
  TRACK 75 AUDIO
    TITLE "3:cjc105_0990"
    INDEX 01 01:29:41
  TRACK 76 AUDIO
    TITLE "0:"
    INDEX 01 01:31:12
  TRACK 77 AUDIO
    TITLE "2:cjc105_0991"
    INDEX 01 01:31:24
  TRACK 78 AUDIO
    TITLE "3:cjc105_0992"
    INDEX 01 01:32:70
  TRACK 79 AUDIO
    TITLE "0:"
    INDEX 01 01:34:40
  TRACK 80 AUDIO
    TITLE "2:cjc105_0993"
    INDEX 01 01:34:54
  TRACK 81 AUDIO
    TITLE "3:cjc105_0994"
    INDEX 01 01:36:11
  TRACK 82 AUDIO
    TITLE "0:"
    INDEX 01 01:37:38
  TRACK 83 AUDIO
    TITLE "2:cjc105_0995"
    INDEX 01 01:37:50
  TRACK 84 AUDIO
    TITLE "3:cjc105_0996"
    INDEX 01 01:39:15
  TRACK 85 AUDIO
    TITLE "0:"
    INDEX 01 01:40:60
  TRACK 86 AUDIO
    TITLE "2:cjc105_0997"
    INDEX 01 01:41:03
  TRACK 87 AUDIO
    TITLE "3:cjc105_0998"
    INDEX 01 01:42:51
  TRACK 88 AUDIO
    TITLE "0:"
    INDEX 01 01:44:19
  TRACK 89 AUDIO
    TITLE "2:cjc105_0999"
    INDEX 01 01:44:34
  TRACK 90 AUDIO
    TITLE "3:cjc105_1000"
    INDEX 01 01:45:73
  TRACK 91 AUDIO
    TITLE "0:"
    INDEX 01 01:48:03
  TRACK 92 AUDIO
    TITLE "2:cjc105_1001"
    INDEX 01 01:48:16
  TRACK 93 AUDIO
    TITLE "3:cjc105_1002"
    INDEX 01 01:50:29
  TRACK 94 AUDIO
    TITLE "0:"
    INDEX 01 01:52:08
  TRACK 95 AUDIO
    TITLE "2:cjc105_1003"
    INDEX 01 01:52:22
  TRACK 96 AUDIO
    TITLE "3:cjc105_1004"
    INDEX 01 01:53:69
  TRACK 97 AUDIO
    TITLE "0:"
    INDEX 01 01:55:32
  TRACK 98 AUDIO
    TITLE "2:cjc105_1005"
    INDEX 01 01:55:46
  TRACK 99 AUDIO
    TITLE "3:cjc105_1006"
    INDEX 01 01:57:43
  TRACK 100 AUDIO
    TITLE "0:"
    INDEX 01 01:59:42
  TRACK 101 AUDIO
    TITLE "2:cjc105_1007"
    INDEX 01 01:59:53
  TRACK 102 AUDIO
    TITLE "3:cjc105_1008"
    INDEX 01 02:01:05
  TRACK 103 AUDIO
    TITLE "0:"
    INDEX 01 02:03:28
  TRACK 104 AUDIO
    TITLE "2:cjc105_1009"
    INDEX 01 02:03:43
  TRACK 105 AUDIO
    TITLE "3:cjc105_1010"
    INDEX 01 02:05:25
  TRACK 106 AUDIO
    TITLE "0:"
    INDEX 01 02:07:27
  TRACK 107 AUDIO
    TITLE "2:cjc105_1011"
    INDEX 01 02:07:37
  TRACK 108 AUDIO
    TITLE "3:cjc105_1012"
    INDEX 01 02:08:72
  TRACK 109 AUDIO
    TITLE "0:"
    INDEX 01 02:10:73
  TRACK 110 AUDIO
    TITLE "2:cjc105_1013"
    INDEX 01 02:11:15
  TRACK 111 AUDIO
    TITLE "3:cjc105_1014"
    INDEX 01 02:12:64
  TRACK 112 AUDIO
    TITLE "0:"
    INDEX 01 02:15:64
  TRACK 113 AUDIO
    TITLE "2:cjc105_1015"
    INDEX 01 02:15:74
  TRACK 114 AUDIO
    TITLE "3:cjc105_1016"
    INDEX 01 02:17:44
  TRACK 115 AUDIO
    TITLE "0:"
    INDEX 01 02:18:74
  TRACK 116 AUDIO
    TITLE "2:cjc105_1017"
    INDEX 01 02:19:11
  TRACK 117 AUDIO
    TITLE "3:cjc105_1018"
    INDEX 01 02:21:06
  TRACK 118 AUDIO
    TITLE "0:"
    INDEX 01 02:22:43
  TRACK 119 AUDIO
    TITLE "2:cjc105_1019"
    INDEX 01 02:22:60
  TRACK 120 AUDIO
    TITLE "3:cjc105_1020"
    INDEX 01 02:24:49
  TRACK 121 AUDIO
    TITLE "0:"
    INDEX 01 02:25:68
  TRACK 122 AUDIO
    TITLE "2:cjc105_1021"
    INDEX 01 02:26:05
  TRACK 123 AUDIO
    TITLE "3:cjc105_1022"
    INDEX 01 02:27:56
  TRACK 124 AUDIO
    TITLE "0:"
    INDEX 01 02:28:65
  TRACK 125 AUDIO
    TITLE "2:cjc105_1023"
    INDEX 01 02:29:08
  TRACK 126 AUDIO
    TITLE "3:cjc105_1024"
    INDEX 01 02:30:72
  TRACK 127 AUDIO
    TITLE "0:"
    INDEX 01 02:32:47
  TRACK 128 AUDIO
    TITLE "2:cjc105_1025"
    INDEX 01 02:32:59
  TRACK 129 AUDIO
    TITLE "3:cjc105_1026"
    INDEX 01 02:34:22
  TRACK 130 AUDIO
    TITLE "0:"
    INDEX 01 02:36:27
  TRACK 131 AUDIO
    TITLE "2:cjc105_1027"
    INDEX 01 02:36:39
  TRACK 132 AUDIO
    TITLE "3:cjc105_1028"
    INDEX 01 02:38:08
  TRACK 133 AUDIO
    TITLE "0:"
    INDEX 01 02:39:43
  TRACK 134 AUDIO
    TITLE "2:cjc105_1029"
    INDEX 01 02:39:61
  TRACK 135 AUDIO
    TITLE "3:cjc105_1030"
    INDEX 01 02:41:24
  TRACK 136 AUDIO
    TITLE "0:"
    INDEX 01 02:43:00
  TRACK 137 AUDIO
    TITLE "2:cjc105_1031"
    INDEX 01 02:43:17
  TRACK 138 AUDIO
    TITLE "3:cjc105_1032"
    INDEX 01 02:44:48
  TRACK 139 AUDIO
    TITLE "0:"
    INDEX 01 02:46:28
  TRACK 140 AUDIO
    TITLE "2:cjc105_1033"
    INDEX 01 02:46:51
  TRACK 141 AUDIO
    TITLE "3:cjc105_1034"
    INDEX 01 02:48:38
  TRACK 142 AUDIO
    TITLE "0:"
    INDEX 01 02:50:23
  TRACK 143 AUDIO
    TITLE "2:cjc105_1035"
    INDEX 01 02:50:43
  TRACK 144 AUDIO
    TITLE "3:cjc105_1036"
    INDEX 01 02:52:12
  TRACK 145 AUDIO
    TITLE "0:"
    INDEX 01 02:53:51
  TRACK 146 AUDIO
    TITLE "2:cjc105_1037"
    INDEX 01 02:53:67
  TRACK 147 AUDIO
    TITLE "3:cjc105_1038"
    INDEX 01 02:55:46
  TRACK 148 AUDIO
    TITLE "0:"
    INDEX 01 02:57:10
  TRACK 149 AUDIO
    TITLE "2:cjc105_1039"
    INDEX 01 02:57:31
  TRACK 150 AUDIO
    TITLE "3:cjc105_1040"
    INDEX 01 02:59:03
  TRACK 151 AUDIO
    TITLE "0:"
    INDEX 01 03:01:09
  TRACK 152 AUDIO
    TITLE "2:cjc105_1041"
    INDEX 01 03:01:23
  TRACK 153 AUDIO
    TITLE "3:cjc105_1042"
    INDEX 01 03:02:48
  TRACK 154 AUDIO
    TITLE "0:"
    INDEX 01 03:04:53
  TRACK 155 AUDIO
    TITLE "2:cjc105_1043"
    INDEX 01 03:04:72
  TRACK 156 AUDIO
    TITLE "3:cjc105_1044"
    INDEX 01 03:06:13
  TRACK 157 AUDIO
    TITLE "0:"
    INDEX 01 03:07:61
  TRACK 158 AUDIO
    TITLE "2:cjc105_1045"
    INDEX 01 03:08:04
  TRACK 159 AUDIO
    TITLE "3:cjc105_1046"
    INDEX 01 03:09:44
  TRACK 160 AUDIO
    TITLE "0:"
    INDEX 01 03:10:71
  TRACK 161 AUDIO
    TITLE "2:cjc105_1047"
    INDEX 01 03:11:08
  TRACK 162 AUDIO
    TITLE "3:cjc105_1048"
    INDEX 01 03:12:37
  TRACK 163 AUDIO
    TITLE "0:"
    INDEX 01 03:13:38
  TRACK 164 AUDIO
    TITLE "2:cjc105_1049"
    INDEX 01 03:13:52
  TRACK 165 AUDIO
    TITLE "3:cjc105_1050"
    INDEX 01 03:15:33
  TRACK 166 AUDIO
    TITLE "0:"
    INDEX 01 03:17:09
  TRACK 167 AUDIO
    TITLE "2:cjc105_1051"
    INDEX 01 03:17:24
  TRACK 168 AUDIO
    TITLE "3:cjc105_1052"
    INDEX 01 03:19:02
  TRACK 169 AUDIO
    TITLE "0:"
    INDEX 01 03:20:36
  TRACK 170 AUDIO
    TITLE "2:cjc105_1053"
    INDEX 01 03:20:54
  TRACK 171 AUDIO
    TITLE "3:cjc105_1054"
    INDEX 01 03:21:73
  TRACK 172 AUDIO
    TITLE "0:"
    INDEX 01 03:23:54
  TRACK 173 AUDIO
    TITLE "2:cjc105_1055"
    INDEX 01 03:23:72
  TRACK 174 AUDIO
    TITLE "3:cjc105_1056"
    INDEX 01 03:25:43
  TRACK 175 AUDIO
    TITLE "0:"
    INDEX 01 03:26:64
  TRACK 176 AUDIO
    TITLE "2:cjc105_1057"
    INDEX 01 03:27:01
  TRACK 177 AUDIO
    TITLE "3:cjc105_1058"
    INDEX 01 03:29:00
  TRACK 178 AUDIO
    TITLE "0:"
    INDEX 01 03:30:72
  TRACK 179 AUDIO
    TITLE "2:cjc105_1059"
    INDEX 01 03:31:16
  TRACK 180 AUDIO
    TITLE "3:cjc105_1060"
    INDEX 01 03:32:43
  TRACK 181 AUDIO
    TITLE "0:"
    INDEX 01 03:33:55
  TRACK 182 AUDIO
    TITLE "2:cjc105_1061"
    INDEX 01 03:33:72
  TRACK 183 AUDIO
    TITLE "3:cjc105_1062"
    INDEX 01 03:35:42
  TRACK 184 AUDIO
    TITLE "0:"
    INDEX 01 03:36:74
  TRACK 185 AUDIO
    TITLE "2:cjc105_1063"
    INDEX 01 03:37:13
  TRACK 186 AUDIO
    TITLE "3:cjc105_1064"
    INDEX 01 03:38:44
  TRACK 187 AUDIO
    TITLE "0:"
    INDEX 01 03:40:17
  TRACK 188 AUDIO
    TITLE "2:cjc105_1065"
    INDEX 01 03:40:33
  TRACK 189 AUDIO
    TITLE "3:cjc105_1066"
    INDEX 01 03:41:64
  TRACK 190 AUDIO
    TITLE "0:"
    INDEX 01 03:43:14
  TRACK 191 AUDIO
    TITLE "2:cjc105_1067"
    INDEX 01 03:43:29
  TRACK 192 AUDIO
    TITLE "3:cjc105_1068"
    INDEX 01 03:45:21
  TRACK 193 AUDIO
    TITLE "0:"
    INDEX 01 03:47:41
  TRACK 194 AUDIO
    TITLE "2:cjc105_1069"
    INDEX 01 03:47:55
  TRACK 195 AUDIO
    TITLE "3:cjc105_1070"
    INDEX 01 03:49:22
  TRACK 196 AUDIO
    TITLE "0:"
    INDEX 01 03:50:61
  TRACK 197 AUDIO
    TITLE "2:cjc105_1071"
    INDEX 01 03:51:02
  TRACK 198 AUDIO
    TITLE "3:cjc105_1072"
    INDEX 01 03:52:56
  TRACK 199 AUDIO
    TITLE "0:"
    INDEX 01 03:54:04
  TRACK 200 AUDIO
    TITLE "2:cjc105_1073"
    INDEX 01 03:54:18
  TRACK 201 AUDIO
    TITLE "3:cjc105_1074"
    INDEX 01 03:55:58
  TRACK 202 AUDIO
    TITLE "0:"
    INDEX 01 03:57:32
  TRACK 203 AUDIO
    TITLE "2:cjc105_1075"
    INDEX 01 03:57:45
  TRACK 204 AUDIO
    TITLE "3:cjc105_1076"
    INDEX 01 03:58:58
  TRACK 205 AUDIO
    TITLE "0:"
    INDEX 01 04:00:18
  TRACK 206 AUDIO
    TITLE "2:cjc105_1077"
    INDEX 01 04:00:28
  TRACK 207 AUDIO
    TITLE "3:cjc105_1078"
    INDEX 01 04:02:07
  TRACK 208 AUDIO
    TITLE "0:"
    INDEX 01 04:04:36
  TRACK 209 AUDIO
    TITLE "2:cjc105_1079"
    INDEX 01 04:04:53
  TRACK 210 AUDIO
    TITLE "3:cjc105_1080"
    INDEX 01 04:05:72
  TRACK 211 AUDIO
    TITLE "0:"
    INDEX 01 04:07:63
  TRACK 212 AUDIO
    TITLE "2:cjc105_1081"
    INDEX 01 04:08:06
  TRACK 213 AUDIO
    TITLE "3:cjc105_1082"
    INDEX 01 04:09:17
  TRACK 214 AUDIO
    TITLE "0:"
    INDEX 01 04:12:66
  TRACK 215 AUDIO
    TITLE "2:cjc105_1083"
    INDEX 01 04:13:03
  TRACK 216 AUDIO
    TITLE "3:cjc105_1084"
    INDEX 01 04:14:38
  TRACK 217 AUDIO
    TITLE "0:"
    INDEX 01 04:16:54
  TRACK 218 AUDIO
    TITLE "2:cjc105_1085"
    INDEX 01 04:16:60
  TRACK 219 AUDIO
    TITLE "3:cjc105_1086"
    INDEX 01 04:19:55
  TRACK 220 AUDIO
    TITLE "0:"
    INDEX 01 04:20:70
  TRACK 221 AUDIO
    TITLE "2:cjc105_1087"
    INDEX 01 04:21:10
  TRACK 222 AUDIO
    TITLE "3:cjc105_1088"
    INDEX 01 04:23:54
  TRACK 223 AUDIO
    TITLE "0:"
    INDEX 01 04:25:06
